<svg width="60" height="122" viewBox="0 0 60 122" fill="none" xmlns="http://www.w3.org/2000/svg">
<path d="M29.0703 61.73H0.0302734V90.77H29.0703V61.73Z" fill="#0468B1"/>
<path d="M7.40039 66.49V77.91C7.40039 83.91 10.4004 86.2 14.4004 86.2C18.6004 86.2 21.7304 83.78 21.7304 77.82V66.49H19.1604V78C19.1604 82.26 17.2904 84.16 14.4504 84.16C11.8504 84.16 9.93039 82.31 9.93039 78V66.49H7.40039Z" fill="white"/>
<path d="M59.9004 61.73H30.8604V90.77H59.9004V61.73Z" fill="#0468B1"/>
<path d="M40.4604 86V77.67C40.4604 74.44 40.4604 72.11 40.2904 69.67H40.3804C41.4466 71.8926 42.6558 74.0438 44.0004 76.11L50.1304 86H52.6604V66.56H50.3104V74.7C50.3104 77.7 50.3104 80.05 50.5904 82.64H50.5004C49.5013 80.4608 48.3484 78.3555 47.0504 76.34L40.8703 66.53H38.1104V86H40.4604Z" fill="white"/>
<path d="M59.9004 92.55H30.8604V121.59H59.9004V92.55Z" fill="#0468B1"/>
<path d="M50.29 98.79C49.13 97.79 47.29 97.18 44.85 97.18C43.2377 97.1631 41.6274 97.2971 40.04 97.58V116.71H42.54V109C43.1982 109.132 43.8691 109.189 44.54 109.17C45.6256 109.231 46.7123 109.07 47.7336 108.697C48.7549 108.324 49.6894 107.746 50.48 107C51.0024 106.446 51.4066 105.792 51.6679 105.076C51.9293 104.361 52.0423 103.6 52 102.84C52.0182 102.089 51.8739 101.342 51.577 100.652C51.2802 99.9618 50.8378 99.3436 50.28 98.84" fill="white"/>
<path d="M44.62 107.22C43.9212 107.236 43.223 107.169 42.54 107.02V99.48C43.3192 99.3436 44.109 99.2766 44.9 99.28C47.66 99.28 49.48 100.51 49.48 103.11C49.48 105.71 47.66 107.22 44.62 107.22Z" fill="#0468B1"/>
<path d="M29.04 92.58H0V121.62H29.04V92.58Z" fill="#0468B1"/>
<path d="M20.42 99.54C18.72 97.96 16.16 97.15 12.57 97.15C10.7759 97.1524 8.98448 97.2861 7.20996 97.55V116.63C8.73037 116.801 10.2602 116.874 11.79 116.85C15.56 116.85 18.55 115.85 20.39 114.07C21.3321 113.061 22.064 111.875 22.543 110.581C23.022 109.286 23.2385 107.909 23.18 106.53C23.2577 105.233 23.0509 103.934 22.5742 102.725C22.0974 101.516 21.3622 100.425 20.42 99.53" fill="white"/>
<path d="M12.28 114.85C11.4348 114.879 10.5887 114.839 9.75 114.73V99.4C10.7146 99.2088 11.6968 99.1217 12.68 99.1399C17.97 99.1399 20.57 101.99 20.54 106.62C20.54 111.85 17.63 114.87 12.28 114.85Z" fill="#0468B1"/>
<path d="M59.9303 0H0.0302734V59.91H59.9303V0Z" fill="#0468B1"/>
<path d="M51.4097 31.1901C50.5697 32.3801 49.5597 33.4901 48.7797 34.7001C48.959 33.6839 48.9009 32.6401 48.6097 31.6501C47.9033 29.6833 47.4366 27.6386 47.2197 25.5601V24.7401C47.7097 26.9401 49.8697 28.4501 49.7297 30.9101C49.7337 31.4592 49.6527 32.0057 49.4897 32.5301L49.5897 32.4201C49.8297 31.1961 50.1641 29.9925 50.5897 28.8201C51.2897 27.2001 52.1697 25.5701 51.8197 23.6101C52.3087 24.8208 52.5237 26.1247 52.4494 27.4283C52.3751 28.7319 52.0132 30.0029 51.3897 31.1501" fill="white"/>
<path d="M50.0803 18.7601C50.7911 19.7978 51.228 20.9983 51.3504 22.2501C51.4728 23.502 51.2767 24.7644 50.7803 25.9201C50.393 26.884 50.1243 27.8914 49.9803 28.9201C49.9003 28.7401 49.8903 28.5001 49.8203 28.3001C49.2603 26.1601 47.2303 24.6201 46.3903 22.6001C46.1163 21.9329 45.9119 21.2392 45.7803 20.5301C46.6703 22.1801 48.8703 23.0301 49.4703 24.8501C49.6519 25.3483 49.7793 25.8646 49.8503 26.3901C49.8672 26.3903 49.8837 26.3843 49.8965 26.3732C49.9094 26.3622 49.9179 26.3469 49.9203 26.3301C49.683 24.4255 49.7099 22.4973 50.0003 20.6001C50.0702 19.6359 49.8358 18.6741 49.3303 17.8501C49.6903 18.0501 49.8503 18.4501 50.0903 18.7601" fill="white"/>
<path d="M49.0903 18.4C49.4603 20.07 48.9203 21.71 49.2603 23.4C48.3503 21.6 46.4103 20.76 45.0803 19.32C44.3607 18.47 43.9085 17.4263 43.7803 16.32C44.5403 18.16 46.6003 18.57 47.7803 20.11C48.1043 20.4905 48.3674 20.9189 48.5603 21.38C47.9907 19.8689 47.5328 18.3181 47.1903 16.74C46.9327 16.0419 46.4732 15.4362 45.8703 15C46.663 15.2347 47.379 15.6761 47.9449 16.2788C48.5108 16.8816 48.9061 17.624 49.0903 18.43" fill="white"/>
<path d="M44.9405 14.5501C45.9906 15.5786 46.6904 16.9116 46.9405 18.3601L47.1305 18.8001C45.4118 17.5586 43.9457 16.0008 42.8105 14.2101L41.4805 12.8701C42.7095 13.2269 43.8669 13.7954 44.9005 14.5501" fill="white"/>
<path d="M22.7301 13.25C24.9937 12.1383 27.4784 11.5505 30.0001 11.53C33.0114 11.5414 35.9584 12.4024 38.5022 14.0139C41.046 15.6255 43.0834 17.9222 44.3801 20.64C46.0788 24.1307 46.4347 28.124 45.3801 31.86C44.6937 34.3007 43.4407 36.5447 41.7229 38.4094C40.0052 40.2741 37.8713 41.7068 35.4951 42.5908C33.1189 43.4748 30.5675 43.7852 28.0487 43.4966C25.5299 43.208 23.1148 42.3286 21.0001 40.93C18.6801 39.3588 16.8106 37.2089 15.5767 34.6932C14.3428 32.1775 13.7872 29.3831 13.965 26.5868C14.1429 23.7904 15.0478 21.0889 16.5904 18.7497C18.133 16.4105 20.2598 14.5148 22.7601 13.25" fill="white"/>
<path d="M18.1198 13.0901C17.0295 14.1562 16.0694 15.3478 15.2598 16.6401C14.4282 17.512 13.536 18.324 12.5898 19.0701C13.0698 18.0701 13.0898 16.9001 13.7698 15.9901C14.7698 14.3001 16.5298 13.7101 18.1198 13.0901Z" fill="white"/>
<path d="M11.6998 16.67C12.2315 15.9834 12.9721 15.4885 13.8098 15.26C12.2298 16.35 12.3298 18.26 11.8098 19.91C11.6498 20.51 11.3698 21.06 11.2298 21.68H11.2798C11.5681 20.9554 12.0079 20.3007 12.5698 19.76C13.6998 18.76 15.3598 18.08 15.9098 16.55C15.9098 18.68 14.1098 20.35 12.4098 21.55C11.6896 22.1329 11.0886 22.8493 10.6398 23.66C10.6398 23.12 10.7298 22.58 10.6898 22.01C10.4998 20.15 10.3698 18.01 11.6898 16.64" fill="white"/>
<path d="M8.49985 23.0001C8.50911 21.2206 9.16278 19.5047 10.3399 18.1701C10.3399 18.1701 10.3899 18.1201 10.4299 18.1201C9.21985 19.9701 10.2199 22.2901 10.1699 24.3901L9.99985 26.5801C9.99985 26.5801 9.99985 26.6601 10.0799 26.6301C10.1394 26.3866 10.1828 26.1394 10.2099 25.8901C10.4999 24.1601 11.9999 22.8901 13.3199 21.7301C13.5988 21.4376 13.8254 21.0993 13.9899 20.7301C13.8719 21.6047 13.6259 22.4571 13.2599 23.2601C12.2599 25.2601 10.3399 26.8901 9.99985 29.1701C9.83985 27.0001 8.34985 25.3601 8.49985 23.0001Z" fill="white"/>
<path d="M7.58031 25.72C7.68579 25.1306 7.85339 24.5541 8.08031 24C7.59031 26.49 9.27031 28.28 9.82031 30.45C9.97642 31.2711 10.1801 32.0825 10.4303 32.88C10.4303 32.88 10.4903 32.88 10.5103 32.88C9.69031 30.58 10.8703 28.45 12.0603 26.65C12.3364 26.1555 12.5385 25.6231 12.6603 25.07C12.7008 26.1811 12.6034 27.2929 12.3703 28.38C12.0803 29.75 11.6503 31.05 11.2803 32.38C11.0778 33.2396 11.0573 34.132 11.2203 35L11.1003 34.9C10.2303 33.27 8.51031 32 8.00031 30.26C7.50459 28.8009 7.36068 27.2453 7.58031 25.72Z" fill="white"/>
<path d="M7.49968 30.59C7.68968 33.23 10.4997 34.59 11.8497 36.81C12.1365 37.2834 12.4716 37.7257 12.8497 38.13C12.7797 37.85 12.5297 37.61 12.4297 37.32C11.967 36.3493 11.7868 35.2681 11.9097 34.2C12.0397 32.85 12.5997 31.6 12.3897 30.2C13.5497 32.7 13.1997 35.81 13.8397 38.52C14.0574 39.0923 14.3044 39.653 14.5797 40.2C12.1997 38.56 8.99968 36.9999 7.89968 34.0499C7.49814 32.9436 7.36115 31.7587 7.49968 30.59Z" fill="white"/>
<path d="M8.91992 36.65C10.2499 39.65 13.5699 39.9 15.7999 41.7299C16.1865 42.087 16.6248 42.3837 17.0999 42.61C16.5458 42.1445 16.0609 41.6024 15.6599 41C14.3599 39.19 14.8199 36.65 13.8399 34.7C14.7337 35.7161 15.4841 36.85 16.0699 38.07C16.8699 40.07 17.1699 42.25 19.0199 43.74C17.0199 43.08 14.6799 43.27 12.9199 42.04C11.9192 41.4638 11.0477 40.688 10.3596 39.7608C9.67149 38.8335 9.18144 37.7746 8.91992 36.65Z" fill="white"/>
<path d="M12.3301 42.25C14.4501 44.67 17.9301 43.86 20.7601 44.49C21.147 44.5995 21.5481 44.6501 21.9501 44.64C21.6101 44.43 21.1501 44.45 20.7801 44.26C18.5601 43.47 18.2301 41.07 17.0201 39.46C18.5426 40.5811 19.9677 41.8289 21.2801 43.19C22.3003 44.0174 23.5219 44.5592 24.8201 44.76C24.5101 44.87 24.1001 44.84 23.7701 44.93C21.4501 45.5 18.8601 46.44 16.3901 45.6C14.6624 45.0357 13.2121 43.839 12.3301 42.25Z" fill="white"/>
<path d="M41.18 47.8799C38.79 48.7799 36.29 47.8799 34.42 46.4199C33.66 45.9399 32.99 45.2499 32.01 45.3099C31.6735 45.291 31.3361 45.3248 31.01 45.4099C32.8789 46.2829 34.5864 47.4664 36.06 48.9099C35.781 49.2122 35.4766 49.4898 35.15 49.7399C33.7372 48.1035 32.0441 46.732 30.15 45.6899C29.7951 45.7815 29.4574 45.9301 29.15 46.1299C27.5539 47.0892 26.1473 48.3331 25 49.7999L24 49.0099C25.4646 47.5107 27.1848 46.2848 29.08 45.3899C27.26 44.8199 26.08 46.3899 24.69 47.1199C23.8527 47.7242 22.8825 48.1186 21.861 48.27C20.8395 48.4214 19.7966 48.3254 18.82 47.9899C17.7208 47.6173 16.7453 46.9496 16 46.0599C16.8235 46.5673 17.7544 46.875 18.7181 46.9583C19.6818 47.0417 20.6516 46.8984 21.55 46.5399C23.89 45.5399 26.32 44.2399 29.13 44.8599C29.58 44.8599 30.01 45.2999 30.42 44.9299C32.5336 44.4292 34.757 44.7098 36.68 45.7199L38.55 46.4599C39.4388 46.7895 40.3922 46.9078 41.3346 46.8054C42.277 46.703 43.1827 46.3827 43.98 45.8699C43.2273 46.7898 42.2336 47.4822 41.11 47.8699" fill="white"/>
<path d="M43.7498 45.41C41.0598 46.41 38.3498 45.18 35.7498 44.76L35.2598 44.7C36.5114 44.4995 37.6878 43.9717 38.6698 43.17C39.9991 41.7396 41.4477 40.4249 42.9998 39.24C41.8098 40.76 41.6898 42.93 39.7198 43.91C39.2012 44.1529 38.6666 44.36 38.1198 44.53C38.819 44.4715 39.5138 44.368 40.1998 44.22C42.8398 43.81 45.8498 44.22 47.6998 41.98C46.8591 43.5967 45.4258 44.8257 43.6998 45.41" fill="white"/>
<path d="M45.2396 42.6699C43.8696 43.0399 42.3996 43.16 41.0596 43.61C43.3196 41.67 43.1996 38.6699 44.7096 36.3899C45.1471 35.7153 45.6246 35.0675 46.1396 34.45C45.2296 36.29 45.6196 38.68 44.5696 40.45C44.136 41.199 43.5858 41.8742 42.9396 42.45C43.156 42.3972 43.3555 42.2906 43.5196 42.1399C45.2296 40.4299 47.4696 39.95 49.3196 38.56C50.0799 37.9867 50.682 37.2297 51.0696 36.36C50.7196 39.19 47.8996 41.85 45.2396 42.7" fill="white"/>
<path d="M48.6297 37.8399C47.5697 38.5299 46.4997 39.1799 45.4697 39.9699V39.8799C47.0397 37.2699 46.2697 33.6999 47.2397 30.8799L47.5997 29.8799C47.3997 31.6599 48.1697 33.1699 48.1197 34.9599C48.0554 35.9962 47.7096 36.9954 47.1197 37.8499H47.2197C47.9188 36.8102 48.6732 35.8087 49.4797 34.8499C50.8697 33.5099 52.2797 32.1399 52.4797 30.2799C52.9497 33.3799 51.2097 36.0999 48.6297 37.8599" fill="white"/>
<path d="M36.6202 37.6301L36.7302 37.4801C37.2372 37.1254 37.7123 36.7272 38.1502 36.2901H38.2102C38.1102 36.2901 37.9902 36.3601 37.8802 36.2901C37.7874 36.2368 37.7129 36.1568 37.6665 36.0604C37.6201 35.964 37.604 35.8558 37.6202 35.7501L36.6202 34.7501L36.5602 34.6001C36.4785 34.7771 36.355 34.9316 36.2002 35.0501C36.2002 35.1801 36.2002 35.3701 36.3202 35.4601C36.6402 35.5601 37.0502 35.7701 37.1202 36.1501C36.9902 36.5001 36.3202 36.8201 36.7302 37.2001C36.8702 37.3901 36.5502 37.4601 36.6002 37.6201" fill="#0468B1"/>
<path d="M30.9098 24.6799C31.0998 24.7799 31.1998 24.5899 31.3598 24.5499C31.5712 24.6086 31.7574 24.7351 31.8898 24.9099C32.0298 24.9699 32.1698 24.9099 32.2998 24.8399C32.3798 24.1799 33.2098 24.2699 33.4598 23.6499L33.3098 23.7099C33.2398 23.6199 33.0898 23.6599 33.0898 23.5099C33.2278 23.3578 33.39 23.2294 33.5698 23.1299C32.8697 22.6806 32.1039 22.3432 31.2998 22.1299C30.9625 22.0896 30.6284 22.0261 30.2998 21.9399C30.3683 22.4874 30.405 23.0383 30.4098 23.5899L30.9798 23.7799C31.1598 23.5099 31.5198 23.4499 31.6798 23.1899C31.7798 23.0999 31.8998 23.1899 31.9798 23.2799C31.9948 23.4972 31.9642 23.7152 31.8898 23.9199C31.6698 24.3499 31.1598 24.3999 30.8898 24.7199" fill="#0468B1"/>
<path d="M39.4196 30C39.1167 31.1001 38.6371 32.1437 37.9996 33.09C37.7839 33.4783 37.4913 33.8185 37.1396 34.09L37.8596 34.73C37.8596 34.73 37.8596 34.63 37.8596 34.57C37.8596 34.51 37.8596 34.37 38.0196 34.38C38.3696 34.38 38.3797 34.75 38.5797 34.94C38.5797 35.25 38.8097 35.48 38.7197 35.76C40.6648 33.6934 41.8008 30.9955 41.9196 28.16L42.0296 28.03C41.3096 28.1 40.5497 28.03 39.8097 28.03L39.6896 28C39.6928 28.4789 39.656 28.9572 39.5797 29.43L39.8396 29.72C39.8743 29.7773 39.8874 29.8451 39.8764 29.9111C39.8654 29.9772 39.831 30.0371 39.7796 30.08C39.7284 30.1206 39.665 30.1426 39.5996 30.1426C39.5343 30.1426 39.4709 30.1206 39.4196 30.08" fill="#0468B1"/>
<path d="M37.5004 23.0001C37.1909 22.493 36.8325 22.0174 36.4304 21.5801V21.6701C35.6904 22.4401 34.8904 23.2301 34.1904 24.0101C34.2292 24.1103 34.3042 24.1923 34.4004 24.2401C34.4004 24.0501 34.5404 23.8801 34.5604 23.6901C34.7504 23.4201 35.0304 23.5901 35.2804 23.6401C35.6592 23.6306 36.0379 23.6608 36.4104 23.7301C36.7004 23.8701 36.7304 24.2401 36.9904 24.3801C37.0195 24.4305 37.0274 24.4904 37.0124 24.5466C36.9974 24.6028 36.9607 24.6508 36.9104 24.6801C36.9904 25.2801 37.2804 24.5201 37.5804 24.6801C37.7104 24.7301 37.8704 24.6801 37.9604 24.8401C38.0504 25.0001 38.3104 25.0501 38.3304 25.2801C38.3504 25.5101 38.1804 25.4301 38.0904 25.5001C38.1704 25.7401 37.8504 25.8901 37.9604 26.1501C38.4204 26.2301 38.4404 25.7001 38.6604 25.4601C38.5705 25.0369 38.4188 24.6292 38.2104 24.2501C37.9504 24.2501 37.7904 23.8901 37.5204 23.8301C37.0104 23.6301 37.6004 23.3101 37.5204 23.0101" fill="#0468B1"/>
<path d="M30.3798 39.64C31.013 39.5074 31.6545 39.4172 32.2998 39.37C32.1612 39.3382 32.0357 39.2649 31.9398 39.16C31.5698 39.16 31.3898 38.75 31.2698 38.45C31.1498 38.15 31.3598 38.06 31.4498 37.88C31.2898 37.55 30.7998 37.79 30.5098 37.67C30.4298 37.61 30.3698 37.51 30.2598 37.49L30.3798 37.67C30.421 38.336 30.421 39.004 30.3798 39.67" fill="#0468B1"/>
<path d="M30.8899 33.42C31.0999 33.42 30.9499 33.68 31.0999 33.76C31.4299 33.66 31.6799 34.04 31.9399 33.76C31.9399 33.39 32.3499 33.42 32.5799 33.32C32.8099 33.22 33.3499 32.82 33.3099 32.32L33.2499 32.25C32.9999 32.25 32.8799 32.44 32.6999 32.59C32.5199 32.74 32.3599 32.35 32.1699 32.44C32.1771 32.4588 32.1892 32.4752 32.2051 32.4876C32.221 32.4999 32.2399 32.5077 32.2599 32.51C32.2599 32.57 32.3199 32.69 32.2599 32.74C31.9799 32.99 31.8599 32.62 31.5999 32.65V32.74C31.5999 32.8 31.5999 32.89 31.5099 32.85C31.3399 32.59 31.0199 32.69 30.8599 32.46C30.7599 32.4 30.6599 32.46 30.5899 32.54C30.5199 32.62 30.2799 32.54 30.3399 32.73C30.1399 32.8 30.1199 33.01 29.9699 33.14C29.7199 33.14 29.6099 33.38 29.3799 33.38C29.3799 33.38 29.3799 33.5 29.4499 33.51C29.6032 33.5559 29.7666 33.5559 29.9199 33.51C30.1599 33.13 30.5499 33.45 30.9199 33.31" fill="#0468B1"/>
<path d="M33.25 30.2999C33.2484 30.4377 33.2943 30.5719 33.38 30.6799C33.69 30.6299 33.56 31.0599 33.84 31.0299C34.12 30.9999 33.84 30.8399 33.9 30.7399C33.96 30.6399 33.62 30.4699 33.46 30.3299C33.3 30.1899 33.46 30.2399 33.46 30.1999C33.46 30.1599 33.28 30.1999 33.21 30.2999" fill="#0468B1"/>
<path d="M32.8903 19.28C32.0518 19.0225 31.1916 18.8417 30.3203 18.74L30.4003 18.92V21.08H30.6103C31.917 21.2209 33.1577 21.7269 34.1903 22.54L34.2503 22.71C34.6613 22.2136 35.1021 21.7428 35.5703 21.3L36.0003 21L35.8103 20.92C34.9592 20.2015 33.9875 19.6395 32.9403 19.26" fill="#0468B1"/>
<path d="M18.0004 28.19L18.1704 29.66C18.3162 30.2079 18.4199 30.7662 18.4804 31.33C18.5604 31.21 18.4804 30.97 18.7304 30.94C18.6404 30.77 18.8904 30.62 18.7304 30.47C18.7455 30.0735 18.9057 29.6963 19.1804 29.41C19.5904 29.41 19.6204 28.86 20.0304 28.84C20.2404 28.84 20.3704 29.11 20.4604 29.2C20.3561 29.0201 20.2914 28.8199 20.2707 28.613C20.25 28.406 20.2738 28.197 20.3404 28L20.1604 28.08C19.4201 28.1087 18.6787 28.092 17.9404 28.03L18.0004 28.19Z" fill="#0468B1"/>
<path d="M32.3497 31.93C32.5397 31.73 32.9497 31.73 32.9597 31.45C32.6797 31.45 32.5397 31.5599 32.3497 31.7099C32.3497 31.7699 32.2397 31.88 32.3497 31.93Z" fill="#0468B1"/>
<path d="M37.4297 27.9199L37.6697 28.1699C37.9197 28.3299 37.7597 28.6899 38.0197 28.8399C38.2797 28.9899 38.4397 29.3599 38.5797 29.6299C38.6076 29.5547 38.631 29.4779 38.6497 29.3999C38.7597 28.9599 38.7397 28.4599 38.8797 28.0299C38.3942 28.1005 37.899 28.063 37.4297 27.9199Z" fill="#0468B1"/>
<path d="M34.2099 33.5099C34.4799 33.5799 34.6699 33.92 35.0099 33.82C35.3499 33.72 35.7699 33.91 36.0099 33.61C36.0099 33.31 36.2299 33.1 36.3599 32.84H36.4499C36.6099 33.01 36.6099 33.2599 36.6799 33.4399C36.8999 33.1999 37.0799 32.9299 37.2799 32.6899C37.8075 31.9384 38.1876 31.0934 38.3999 30.2C38.1862 30.2113 37.9747 30.2483 37.7699 30.3099C37.5399 30.3099 37.2599 30.4299 37.0599 30.3099C36.8599 30.1899 36.9399 30.31 36.9499 30.41C36.9599 30.51 36.7899 30.6799 36.5999 30.6299C36.4099 30.5799 36.4599 30.4099 36.4099 30.2999C36.4251 30.3826 36.4251 30.4673 36.4099 30.5499C36.2583 30.6857 36.1209 30.8364 35.9999 31C35.8299 31.18 35.5599 31.12 35.3899 31.27C35.3899 31.65 34.9299 31.57 34.6899 31.7C34.6899 31.7 34.6899 31.75 34.7499 31.79C34.8095 31.8131 34.8748 31.8179 34.9372 31.8037C34.9995 31.7894 35.0562 31.7568 35.0999 31.7099C35.4299 31.7999 35.3599 31.3799 35.5599 31.2299C35.7599 31.0799 35.8799 31.06 36.0499 31.18C36.2168 31.411 36.2884 31.6975 36.2499 31.9799C36.0499 32.17 36.1499 32.4799 36.0199 32.7099C36.0199 32.9699 35.7299 33.09 35.7699 33.36C35.7089 33.4099 35.6386 33.4471 35.563 33.4695C35.4875 33.4918 35.4082 33.4988 35.3299 33.49C34.6868 33.2478 34.0141 33.0931 33.3299 33.0299C33.2993 33.0429 33.2738 33.0656 33.2575 33.0946C33.2413 33.1235 33.235 33.1571 33.2399 33.1899C33.5299 33.3399 33.8799 33.35 34.1799 33.47" fill="#0468B1"/>
<path d="M29.4498 40.5099L29.5298 40.3899L29.2898 40.4499C26.24 40.3082 23.3463 39.0604 21.1498 36.9399V37.0299L19.5098 38.6899C21.8865 40.8325 24.8439 42.2243 28.0098 42.6899C28.543 42.7219 29.074 42.7853 29.5998 42.8799L29.4798 42.6899L29.4498 40.5099Z" fill="#0468B1"/>
<path d="M26.2305 31.9001C27.0574 32.588 28.0505 33.0467 29.1105 33.2301C29.1705 33.0101 29.1105 32.7401 29.1905 32.5601C29.2705 32.3801 29.4805 32.3901 29.6505 32.4201C29.6723 32.4154 29.6928 32.4055 29.7101 32.3913C29.7273 32.377 29.7409 32.3589 29.7498 32.3383C29.7586 32.3178 29.7623 32.2954 29.7607 32.2731C29.7591 32.2507 29.7522 32.2291 29.7405 32.2101C29.5105 32.2101 29.6105 31.9101 29.5305 31.7701C29.4505 31.6301 29.6805 31.7001 29.6505 31.6001C29.6205 31.5001 29.7205 31.3301 29.5905 31.1901C29.5905 31.1901 29.6605 31.1201 29.7005 31.0901C29.2205 31.2901 28.7005 31.0001 28.2705 30.8101C28.0605 30.6901 27.7605 30.5701 27.7205 30.3101C27.2692 30.8808 26.7708 31.4127 26.2305 31.9001Z" fill="#0468B1"/>
<path d="M25.4104 29.41C25.3404 29.41 25.3304 29.41 25.2604 29.41C25.1904 29.41 25.1704 29.41 25.1404 29.41C25.1404 28.95 24.6304 29.22 24.4404 28.98C24.6704 29.4 24.7804 29.87 25.0204 30.28C25.2604 30.69 25.4804 30.94 25.6204 31.28C25.8186 30.9994 26.0429 30.7382 26.2904 30.5C26.3092 30.3883 26.2841 30.2737 26.2204 30.18C26.1504 30.01 26.2204 29.78 26.0804 29.63C25.8804 29.71 26.1604 29.91 26.0804 30.03C26.0624 30.0398 26.0424 30.0452 26.0219 30.0458C26.0014 30.0464 25.981 30.0421 25.9625 30.0333C25.944 30.0246 25.9278 30.0115 25.9153 29.9953C25.9027 29.9791 25.8942 29.9601 25.8904 29.94C25.8003 29.9178 25.7173 29.8731 25.6491 29.8101C25.5809 29.7472 25.5298 29.668 25.5004 29.58C25.6604 29.48 25.5004 29.44 25.4204 29.36" fill="#0468B1"/>
<path d="M26.9999 29.6399C26.9375 29.8392 26.8236 30.0185 26.6699 30.1599C26.8699 30.0199 26.9999 29.7799 27.2499 29.7599L26.9999 29.6399Z" fill="#0468B1"/>
<path d="M29.2596 37.4C27.387 37.2937 25.5909 36.6206 24.1096 35.47C24.1596 35.66 24.4196 35.78 24.3396 36.02C24.2596 36.26 23.9296 36.24 23.7096 36.24C23.2496 36.16 22.9096 36.51 22.4896 36.56C22.0696 36.61 21.9596 36.2 21.5996 36.24C23.7212 38.1959 26.4499 39.3643 29.3296 39.55L29.5496 39.7L29.4496 39.43V37.32L29.2596 37.4Z" fill="#0468B1"/>
<path d="M20.6403 36.36C20.3666 36.1345 20.1184 35.8796 19.9003 35.6C19.6186 35.5246 19.378 35.3414 19.2303 35.09C19.1503 35 19.2303 34.84 19.1303 34.78L19.0003 34.9C18.7203 35.03 18.6203 34.74 18.4203 34.62C18.2203 34.5 18.3003 34.02 17.9603 34.1C17.8303 34.1 17.7903 33.95 17.7103 33.88C17.4003 33.88 17.3203 33.56 17.1503 33.4C17.1503 33.47 17.1503 33.56 17.0603 33.61C16.7403 33.68 16.6303 33.29 16.4103 33.13C16.3503 33.13 16.3103 33.22 16.2303 33.2C16.0416 33.026 15.927 32.7861 15.9103 32.53C15.6403 32.24 15.7603 31.77 15.8103 31.41C15.8603 31.31 16.0003 31.26 15.9703 31.14C15.9403 31.02 16.2203 30.95 16.3903 30.94C16.4554 30.9801 16.5102 31.0349 16.5503 31.1C16.6503 31.03 16.8803 31.1 16.7903 30.87C16.9437 30.7617 17.1232 30.6962 17.3103 30.68C17.4146 30.8543 17.5352 31.0183 17.6703 31.17L17.6003 31C17.3953 30.2042 17.2681 29.3904 17.2203 28.57C17.2203 28.57 17.1203 28.5 17.2203 28.46C17.2082 28.3102 17.2082 28.1598 17.2203 28.01L17.0003 28.09H14.7803C14.9127 30.5439 15.5963 32.9365 16.7803 35.09C17.4191 36.1363 18.1273 37.1385 18.9003 38.09L20.4903 36.44L20.6403 36.36Z" fill="#0468B1"/>
<path d="M23.2005 17.7301C22.7005 18.0701 22.2505 18.5201 21.7305 18.8201C22.3107 19.2712 22.8526 19.7695 23.3505 20.3101V20.4601C24.6938 19.1919 26.3742 18.3378 28.1905 18.0001C28.603 17.9031 29.0278 17.8694 29.4505 17.9001C29.3955 17.1344 29.3955 16.3658 29.4505 15.6001C27.222 15.7154 25.0676 16.4381 23.2205 17.6901" fill="#0468B1"/>
<path d="M21.2996 26.0599C21.2688 26.4618 21.2018 26.8601 21.0996 27.2499C21.4276 27.1653 21.7717 27.1653 22.0996 27.2499C21.9196 27.1499 22.0996 26.9199 21.9696 26.7899C21.8396 26.6599 21.9096 26.3499 22.0996 26.2199C22.0996 25.8899 22.4296 25.7199 22.4596 25.4299C22.4896 25.1399 22.9296 25.3199 23.1196 25.1399C23.3096 24.9599 23.1196 24.9699 23.1196 24.8799C23.2796 24.6599 23.5296 24.6699 23.7196 24.5499C23.853 24.3266 24.0339 24.1354 24.2496 23.9899C24.7396 23.9899 24.7396 23.3399 25.1996 23.3199C24.5766 22.8101 23.9854 22.2624 23.4296 21.6799C22.3344 22.9357 21.5954 24.4619 21.2896 26.0999" fill="#0468B1"/>
<path d="M21.6003 29.3C21.6003 29.15 21.4103 29.12 21.4303 28.97C21.4503 28.82 21.4303 28.2 21.8303 28.07C21.7061 28.1141 21.5738 28.1306 21.4426 28.1185C21.3114 28.1064 21.1844 28.066 21.0703 28L21.1803 28.19C21.2852 28.7063 21.3255 29.2337 21.3003 29.76C21.3903 29.6 21.4103 29.4 21.6003 29.3Z" fill="#0468B1"/>
<path d="M23.7995 35.06L23.7695 35.01L23.7995 35.1V35.06Z" fill="#0468B1"/>
<path d="M21.15 19.4899L20.28 20.5899C18.9157 22.5398 18.1258 24.8334 18 27.2099H20.19L20.39 27.2899C20.31 27.2299 20.33 27.1399 20.3 27.0599C20.423 24.8253 21.3212 22.7036 22.84 21.0599C22.2383 20.5432 21.6767 19.9816 21.16 19.3799L21.15 19.4899Z" fill="#0468B1"/>
<path d="M27.89 34.42C28.0516 34.2388 28.2588 34.1041 28.49 34.03C27.78 34.17 27.15 33.66 26.55 33.38C26.1591 33.1724 25.8179 32.8824 25.55 32.53C25.0895 33.1242 24.5702 33.6703 24 34.16C24.25 34.16 24.38 34.45 24.59 34.57C25.7937 35.4793 27.1892 36.1018 28.67 36.39L28.29 36.21C28 35.89 27.59 35.5 27.58 35.05C27.86 34.95 27.83 34.63 27.93 34.42" fill="#0468B1"/>
<path d="M22.4301 28.0701L22.3601 28.4901C22.2701 28.7401 21.9601 28.5601 21.8201 28.7301C21.6801 28.9001 21.8201 29.0501 21.9101 29.1801C21.6901 29.6901 22.4101 29.8501 22.4001 30.3101C22.6301 30.6001 22.4001 31.0201 22.6901 31.3101C22.7601 31.8301 22.6201 32.5301 23.0801 32.9401L23.1601 33.4401C23.2501 33.7801 22.7501 33.6901 22.8101 33.9901C22.9101 33.9901 22.9301 34.0701 22.9401 34.1001C23.5801 33.3558 24.2682 32.6543 25.0001 32.0001L24.7001 31.6901C24.1163 30.8688 23.6985 29.9415 23.4701 28.9601L23.2401 28.8401C23.188 29.0741 23.1513 29.3113 23.1301 29.5501L23.0001 29.6001C22.8301 29.6001 22.7201 29.4601 22.5801 29.3701C22.4401 29.2801 22.4601 29.1401 22.5801 29.0701C22.6472 29.0649 22.7141 29.0826 22.7701 29.1201C22.8401 29.0401 22.7701 28.9101 22.8501 28.8001C22.9301 28.6901 22.7001 28.4301 22.8501 28.2601C23.0101 28.2601 23.1201 28.4301 23.1801 28.5301C23.2401 28.6301 23.4501 28.4601 23.5801 28.4001C23.7101 28.3401 23.7701 28.0801 23.5801 28.0001C23.6653 27.6925 23.6653 27.3676 23.5801 27.0601C23.4901 26.8001 23.2001 26.8401 22.9801 26.8601C22.3301 27.0701 23.0901 27.5601 22.9301 27.9601C22.8301 28.1901 22.6001 27.9601 22.4301 28.0701Z" fill="#0468B1"/>
<path d="M42.8804 27.9999L42.7504 27.8999L42.8304 28.1199C42.7125 30.6826 41.8315 33.1515 40.3004 35.2099C40.033 35.5837 39.7169 35.92 39.3604 36.2099C39.9989 36.7599 40.594 37.3583 41.1404 37.9999L41.2004 37.8799C43.6388 35.2015 45.0551 31.7492 45.2004 28.1299L45.3004 27.9399L45.1804 27.9999H42.8804Z" fill="#0468B1"/>
<path d="M21.2604 18.2599V18.1499C23.476 16.0634 26.3696 14.8456 29.4104 14.7199L29.3404 14.5299V12.6099L29.4004 12.3899C26.3038 12.5045 23.3137 13.55 20.8204 15.3899C20.3304 15.7199 19.9004 16.2299 19.4004 16.5199H19.4704C20.1083 17.0344 20.7006 17.6032 21.2404 18.2199" fill="#0468B1"/>
<path d="M29.34 18.8C27.3653 18.9677 25.4952 19.7592 24 21.06C24.5976 21.5559 25.1653 22.0868 25.7 22.65C25.7446 22.5932 25.7847 22.533 25.82 22.47C26.5441 21.9041 27.3685 21.48 28.25 21.22C28.6421 21.1033 29.0516 21.056 29.46 21.08C29.37 20.2959 29.37 19.5041 29.46 18.72L29.34 18.8Z" fill="#0468B1"/>
<path d="M29.4498 22C28.1608 22.1144 26.9551 22.6853 26.0498 23.61H26.2198C26.4098 23.8 26.7198 23.76 26.8698 24.02C27.0198 24.28 26.7298 24.14 26.7398 24.26C26.7498 24.38 26.8398 24.26 26.8698 24.36C26.8998 24.46 26.9898 24.27 27.0398 24.21C27.0898 24.15 27.2698 24.4 27.4698 24.4C27.5008 24.375 27.5366 24.3567 27.5749 24.3461C27.6133 24.3356 27.6535 24.333 27.6929 24.3387C27.7323 24.3443 27.7701 24.358 27.804 24.3788C27.8378 24.3997 27.8671 24.4273 27.8898 24.46C28.0198 24.34 28.2898 24.46 28.3298 24.24C28.5798 23.98 28.4398 23.57 28.8098 23.4C28.9298 23.47 28.8098 23.59 28.8098 23.71C29.0498 23.81 29.3298 23.5 29.5298 23.71C29.4064 23.1487 29.3794 22.5704 29.4498 22Z" fill="#0468B1"/>
<path d="M29.53 25.5401C29.4131 25.703 29.264 25.8403 29.092 25.9435C28.9201 26.0467 28.7288 26.1136 28.53 26.1401C28.43 26.2701 28.45 26.5501 28.2 26.5201C28.12 26.7001 27.85 26.8001 27.96 27.0601C27.8819 27.3611 27.835 27.6694 27.82 27.9801C27.35 28.2701 27.48 27.5801 27.25 27.4401L27.16 27.5801C27.07 27.5801 27.01 27.5801 26.94 27.4801C26.87 27.3801 26.75 27.4301 26.69 27.4801C26.63 27.5301 26.42 27.8001 26.46 28.0401C26.5 28.2801 26.18 28.1301 26.21 28.2801C26.48 28.2736 26.7483 28.2367 27.01 28.1701C27.2 28.1701 27.35 28.0801 27.53 28.0801C27.5691 28.0917 27.6023 28.1179 27.6227 28.1532C27.6432 28.1886 27.6494 28.2304 27.64 28.2701H27.71C27.7695 28.2268 27.8134 28.1654 27.835 28.0951C27.8566 28.0248 27.8549 27.9493 27.83 27.8801C27.83 27.7201 28.04 27.7201 28.15 27.6701C28.26 27.6201 28.15 27.8201 28.2 27.9001C28.56 28.0401 28.12 28.3001 28.07 28.4901C28.02 28.6801 28.07 28.9801 27.76 28.9401C27.7335 28.929 27.7119 28.9088 27.699 28.8831C27.6862 28.8574 27.683 28.8279 27.69 28.8001H27.64C27.6426 28.8739 27.6643 28.9459 27.7028 29.0089C27.7413 29.072 27.7955 29.124 27.86 29.1601C28.08 28.9801 28.09 28.6601 28.41 28.6201C28.73 28.5801 28.34 28.1801 28.59 28.0401C29 28.0401 29.44 27.8501 29.78 28.1801C29.78 28.3301 29.7 28.4001 29.78 28.5101C29.7157 28.7057 29.6175 28.8884 29.49 29.0501C29.5096 29.1031 29.5115 29.161 29.4952 29.2152C29.479 29.2693 29.4456 29.3167 29.4 29.3501C29.3 29.8401 28.74 29.6101 28.4 29.7701C28.9044 30.1479 29.5337 30.3195 30.16 30.2501C30.51 30.2501 30.35 29.8101 30.53 29.6201C30.64 29.0701 31.16 29.4501 31.47 29.3001C31.5964 29.0657 31.6842 28.8124 31.73 28.5501C31.638 28.4858 31.5684 28.3944 31.5307 28.2886C31.4931 28.1829 31.4893 28.0681 31.52 27.9601C31.39 27.7701 31.4 27.4401 31.1 27.4001C31.1 27.3401 31.1 27.2601 31.1 27.2101C31.1 27.1601 31.26 26.9801 31.31 26.8401C31.13 26.7301 31.18 26.4601 31.19 26.3101C30.88 26.4001 30.85 25.9901 30.62 25.9001C30.56 25.7201 30.36 25.6901 30.2 25.6601C29.82 25.8401 29.76 25.3701 29.47 25.2601C29.47 25.1701 29.37 25.0401 29.47 24.9701C29.57 24.9001 29.8 24.9701 29.97 24.9701L29.84 24.9001C29.71 24.7601 29.43 24.8501 29.26 24.9001C29.42 25.0601 29.35 25.3501 29.45 25.5501" fill="#0468B1"/>
<path d="M17.23 27.23L17.18 26.92C17.3091 24.459 18.1383 22.0859 19.57 20.08C19.8751 19.6309 20.2345 19.2211 20.64 18.8601C20.12 18.3701 19.58 17.8101 19.04 17.2701L19 17.05C16.7613 19.4595 15.3313 22.5082 14.91 25.7701C14.82 26.25 14.91 26.77 14.79 27.23C15.6089 27.17 16.4311 27.17 17.25 27.23" fill="#0468B1"/>
<path d="M38.8299 36.77C38.525 37.1655 38.1526 37.5041 37.7299 37.77C37.2099 38.29 36.3699 38.4 36.0999 39.16C35.8199 39.41 35.7299 39.81 35.3399 39.95C35.1899 40.34 34.7799 40.31 34.5499 40.59C33.8799 41.19 33.4499 40.21 32.8499 40.09L31.6199 40.31C31.2095 40.38 30.7903 40.38 30.3799 40.31C30.4399 41.1456 30.4399 41.9844 30.3799 42.82L30.5299 42.72C34.26 42.5602 37.8087 41.0662 40.5299 38.51L38.8599 37L38.8299 36.77Z" fill="#0468B1"/>
<path d="M30.34 14.5101C30.3422 14.4408 30.3668 14.3742 30.41 14.3201C30.52 14.2501 30.62 14.3201 30.66 14.4301C30.7 14.5401 30.72 14.7301 30.66 14.8001C30.75 14.8001 30.8 14.7401 30.89 14.7401C32.6485 14.8783 34.3553 15.4006 35.89 16.2701C36.2 16.1101 36.6 15.9101 36.89 16.1801C37.28 16.0401 37.35 16.5101 37.66 16.5701C37.8702 16.6795 38.0547 16.8324 38.2013 17.0186C38.3478 17.2048 38.4531 17.4201 38.51 17.6501C38.58 17.7901 38.8 17.8901 38.83 18.0401C39.1626 17.5196 39.5703 17.0512 40.04 16.6501L40.31 16.5301C37.9889 14.3227 35.0194 12.9203 31.84 12.5301C31.32 12.4982 30.8024 12.4347 30.29 12.3401C30.3605 13.0717 30.3605 13.8084 30.29 14.5401" fill="#0468B1"/>
<path d="M30.3395 17.94C30.6442 17.8902 30.9549 17.8902 31.2595 17.94C32.8117 18.1487 34.2868 18.7435 35.5495 19.67C35.3718 19.5174 35.2431 19.3156 35.1795 19.09C35.1947 19.0813 35.212 19.0766 35.2295 19.0766C35.2471 19.0766 35.2643 19.0813 35.2795 19.09C35.2795 18.84 35.0295 18.72 34.9895 18.49C35.0105 18.4633 35.0383 18.4428 35.07 18.4305C35.1016 18.4182 35.136 18.4146 35.1695 18.42C35.4276 18.6713 35.6619 18.9458 35.8695 19.24C36.0495 19.17 36.1895 19.24 36.3195 19.38C36.4495 19.52 36.4095 19.81 36.5795 19.97C36.5795 20.44 37.1895 20.7 37.1595 21.17C37.1595 21.29 37.2995 21.17 37.3495 21.25L37.8295 21.84C37.8117 21.8665 37.7996 21.8965 37.7939 21.9279C37.7883 21.9594 37.7893 21.9916 37.7968 22.0227C37.8043 22.0537 37.8182 22.0829 37.8376 22.1082C37.8571 22.1336 37.8815 22.1547 37.9095 22.17C38.1195 22.27 38.2395 22 38.4595 22.04C38.6795 22.08 38.4095 22.42 38.4595 22.61C38.5795 22.61 38.7295 22.52 38.8295 22.61C38.9295 22.7 38.6795 22.89 38.6095 23.01C38.5395 23.13 38.7595 23.14 38.8795 23.18C38.9137 23.1814 38.9471 23.1906 38.977 23.2071C39.007 23.2236 39.0327 23.2468 39.0521 23.275C39.0715 23.3031 39.0841 23.3354 39.0889 23.3693C39.0936 23.4031 39.0904 23.4376 39.0795 23.47C39.4795 23.88 38.9595 24.33 39.1495 24.77C39.1902 24.9067 39.1921 25.0521 39.155 25.1898C39.1179 25.3275 39.0433 25.4522 38.9395 25.55C38.9395 25.9 38.6295 26.12 38.4995 26.41L38.0895 26.49C37.8795 26.71 38.2795 26.97 38.0895 27.11H38.9895L38.8895 27.02C38.8266 26.8398 38.8038 26.6479 38.8228 26.4579C38.8418 26.2679 38.9021 26.0843 38.9995 25.92C39.1395 25.64 39.1695 25.29 39.4195 25.05C39.4795 25.05 39.5795 24.93 39.6295 25.05C39.6577 25.33 39.6129 25.6125 39.4995 25.87C39.6981 26.2729 39.7812 26.7229 39.7395 27.17C40.5295 27.12 41.3095 27.11 42.0795 27.11L41.9995 27C41.9285 25.5728 41.5892 24.1717 40.9995 22.87C40.8295 22.87 40.7095 23.01 40.5195 22.96C40.4878 22.9487 40.4612 22.9262 40.4446 22.8968C40.4281 22.8675 40.4227 22.8331 40.4295 22.8C40.1558 22.45 39.862 22.1161 39.5495 21.8C39.1395 21.8 38.9595 21.37 38.5495 21.32C38.1395 21.27 38.4495 20.66 37.9795 20.8C37.8566 20.7621 37.7453 20.6935 37.6561 20.6008C37.5669 20.5081 37.5027 20.3943 37.4695 20.27C37.4907 20.0546 37.459 19.8372 37.3771 19.6368C37.2951 19.4364 37.1656 19.259 36.9995 19.12C36.7095 19.02 36.5895 19.4 36.2995 19.34C36.0095 19.28 36.2195 19.05 36.1695 18.92C36.1195 18.79 35.9795 18.71 35.9995 18.55C36.3695 18.05 35.5495 18.06 35.7295 17.55C35.7295 17.2 35.3195 17.07 35.1395 16.79C33.9147 16.2222 32.6092 15.8478 31.2695 15.68C30.9303 15.6969 30.591 15.6494 30.2695 15.54L30.3495 15.69C30.3495 16.44 30.3495 17.23 30.3495 17.92" fill="#0468B1"/>
<path d="M39.0703 18.76C39.2403 18.76 39.2903 19 39.4003 19.12C39.9803 19.43 40.1303 20.06 40.6403 20.41C40.9303 21.01 41.6403 21.47 41.6403 22.16C42.3726 23.7118 42.7842 25.3954 42.8503 27.11L42.7903 27.21C42.8593 27.2065 42.9256 27.1821 42.9803 27.14H45.2803C45.1303 26.91 45.1903 26.59 45.1503 26.32C44.8162 22.8313 43.3317 19.5527 40.9303 17C40.4353 17.6016 39.9043 18.1726 39.3403 18.71L39.0703 18.76Z" fill="#0468B1"/>
<path d="M30.6602 14.1301C30.7302 14.0001 30.9102 14.0501 31.0102 14.1301L32.1602 13.6301C32.3906 13.6176 32.621 13.654 32.8364 13.7367C33.0518 13.8194 33.2473 13.9466 33.4102 14.1101V14.1701C33.284 14.3021 33.1241 14.397 32.9478 14.4446C32.7716 14.4922 32.5856 14.4906 32.4102 14.4401C31.8802 14.5401 31.1402 14.8401 30.7202 14.3001C30.7202 14.3001 30.6602 14.2101 30.7202 14.1701" fill="white"/>
<path d="M37.5201 15.5799C37.6 15.5931 37.6751 15.6268 37.7382 15.6776C37.8013 15.7284 37.8501 15.7946 37.8801 15.8699C37.8801 16.0499 38.0501 16.1999 37.8801 16.3399C37.4501 16.4599 37.4101 15.9699 37.0801 15.8499C37.0549 15.8177 37.0366 15.7806 37.0263 15.7411C37.016 15.7015 37.0139 15.6603 37.0201 15.6199C37.1701 15.4399 37.3101 15.7399 37.4801 15.6199" fill="white"/>
</svg>
